<svg xmlns="http://www.w3.org/2000/svg" viewBox="0 0 664 511">
  <path d="M408.475 507.965c8.166 0 14.786-6.618 14.786-14.78 0-8.166-6.62-14.782-14.786-14.782-8.167 0-14.788 6.616-14.788 14.782 0 8.162 6.621 14.78 14.788 14.78zm-31.708-85.62c5.559-12.758 16.267-19.138 31.708-19.138v24.079c-8.441-.617-15.854 1.44-22.236 6.174-6.383 4.528-9.472 12.142-9.472 22.64v51.865H354.53V405.058h22.237v17.287zm-53.937 25.523c-3.087-16.673-14.824-25.315-29.443-25.315-16.474 0-28.002 9.672-31.091 25.315h60.534zm-60.328 18.112c3.294 15.642 15.855 24.286 32.944 24.286 11.736 0 20.59-4.324 26.56-12.762l18.326 10.704c-10.09 15.022-25.121 22.434-45.093 22.434-16.676 0-30.265-5.146-40.562-15.23-10.294-10.294-15.442-23.258-15.442-38.901 0-15.435 5.148-28.197 15.237-38.486 10.09-10.496 23.267-15.642 39.121-15.642 15.03 0 27.385 5.35 37.06 15.846 9.679 10.498 14.62 23.464 14.62 38.488 0 2.264-.204 5.352-.824 9.263h-81.947zm-49.2-18.112c-3.087-16.673-14.824-25.315-29.443-25.315-16.471 0-28.002 9.672-31.09 25.315h60.533zm-60.327 18.112c3.293 15.642 15.854 24.286 32.945 24.286 11.735 0 20.589-4.324 26.558-12.762l18.326 10.704c-10.089 15.022-25.12 22.434-45.093 22.434-16.676 0-30.267-5.146-40.562-15.23-10.294-10.294-15.441-23.258-15.441-38.901 0-15.435 5.147-28.197 15.236-38.486 10.09-10.496 23.267-15.642 39.122-15.642 15.03 0 27.384 5.35 37.06 15.846 9.678 10.498 14.62 23.464 14.62 38.488 0 2.264-.205 5.352-.824 9.263h-81.947zm-96.352 19.346c13.587 0 24.706-4.734 33.15-13.996 8.645-9.261 12.971-21.2 12.971-35.4 0-14.407-4.326-26.139-12.971-35.4-8.444-9.261-19.563-13.994-33.15-13.994H23.68v98.79h32.943zm0-121.43c19.767 0 36.239 6.999 49.21 20.786 13.176 13.79 19.765 30.874 19.765 51.248 0 20.17-6.589 37.254-19.765 51.246-12.971 13.792-29.443 20.789-49.21 20.789H0V369.849a5.954 5.954 0 015.956-5.953h50.667zM470.042 0c39.91 0 78.182 12.026 110.76 34.79l.985.694-12.393 17.49c-29.145-20.635-63.502-31.542-99.352-31.542-94.9 0-172.106 77.174-172.106 172.033 0 64.749 35.976 121.25 88.993 150.6a60.324 60.324 0 009.568-1.531 61.35 61.35 0 0025.704-13.415 62.032 62.032 0 009.473-10.425 60.707 60.707 0 0011.451-34.198c.02-.577.036-1.06.036-1.543 0-.586-.016-1.155-.034-1.741-.708-15.61-12.04-28.672-27.551-31.596a33.376 33.376 0 00-6.399-.614c-.026 0-1.04.023-4.415.56-9.832 1.573-19.451-3.973-23.008-13.222l-.128-.34-3.555-9.746a12.841 12.841 0 01.43-9.898 12.85 12.85 0 016.96-6.561l.346-.131 167.074-60.785-3.403 17.116c-2.082 10.458-6.175 20.28-12.168 29.191a81.39 81.39 0 01-20.851 21.23c18.23 17.835 32.906 39.283 42.828 62.706a190.867 190.867 0 0113.8 52.05c41.9-31.407 69.06-81.445 69.06-137.707 0-38.938-13.349-77.014-37.615-107.355l-.738-.917 16.654-13.498c27.819 34.294 43.14 77.54 43.14 121.77 0 106.678-86.826 193.466-193.546 193.466-106.723 0-193.546-86.788-193.546-193.466C276.496 86.788 363.319 0 470.042 0zm53.248 180.554L398.836 225.83l1.254 3.435c.229.63.9 1.012 1.569.9 4.486-.716 6.375-.81 7.518-.81 3.406 0 6.802.326 10.097.967 24.455 4.608 42.363 25.243 43.494 50.168.027.938.047 1.69.047 2.463 0 .695-.02 1.391-.042 2.088-.371 16.226-5.604 31.857-15.133 45.112a81.719 81.719 0 01-12.47 13.725c-5.903 5.187-12.58 9.477-19.725 12.745 17.163 5.753 35.52 8.877 54.597 8.877 30.644 0 59.439-8.057 84.387-22.148-1.198-19.568-5.623-38.57-13.242-56.573-10.373-24.49-26.54-46.579-46.79-63.943l-.824-.7-11.746-9.943 13.967-6.467a61.584 61.584 0 0025.209-21.507 60.73 60.73 0 002.287-3.665zM616.537 2.559L621.31 5l6.473 3.31 14.204 7.263c-14.963 27.856-34.75 52.958-58.125 73.904-23.361 20.98-50.285 37.788-79.21 49.466-24.184 9.793-49.745 15.928-75.557 18.303a270.083 270.083 0 01-30.248 1.725 269.254 269.254 0 01-40.476-3.05 266.316 266.316 0 01-36.311-8.132l.634-2.127 3.847-12.859.638-2.123a248.774 248.774 0 0033.88 7.585 251.304 251.304 0 0037.788 2.846c10.244 0 20.439-.657 30.542-1.89 23.185-3.344 45.814-9.943 66.992-19.58a247.397 247.397 0 0070.548-48.272c20.43-19.923 37.285-43.34 49.607-68.809zM518.13 39.917c-.609 10.921-3.366 21.658-8.042 31.326a80.89 80.89 0 01-19.039 25.26 78.67 78.67 0 01-26.647 15.717 76.998 76.998 0 01-29.963 4.137v-10.579c8.639-.594 17.027-2.884 24.528-6.66 7.515-3.77 14.174-8.967 19.495-15.193 5.35-6.192 9.383-13.347 11.853-20.878a59.589 59.589 0 002.801-23.13zM138.774 247.406c15.237 0 28.002 5.145 38.504 15.641 10.5 10.498 15.852 23.258 15.852 38.488 0 15.228-5.352 27.99-15.852 38.486-10.502 10.498-23.267 15.643-38.504 15.643-15.03 0-28.002-5.145-38.501-15.643-10.502-10.496-15.855-23.258-15.855-38.486 0-15.23 5.353-27.99 15.855-38.488 10.5-10.496 23.471-15.641 38.501-15.641zm118.18.823v24.08c-8.442-.616-15.856 1.442-22.237 6.173-6.382 4.53-9.472 12.145-9.472 22.642v45.91a5.954 5.954 0 01-5.955 5.953h-16.281v-96.953a5.954 5.954 0 015.956-5.953h16.28v17.29c5.56-12.762 16.266-19.142 31.709-19.142zM84.418 208.92v22.64H23.68v40.339h46.766v16.685a5.954 5.954 0 01-5.955 5.953H23.68v52.498a5.954 5.954 0 01-5.956 5.953H0V214.873a5.953 5.953 0 015.956-5.953h78.462zm54.356 60.097c-9.058 0-16.678 3.088-22.854 9.262-6.178 6.173-9.265 13.996-9.265 23.257 0 9.261 3.087 17.082 9.265 23.255 6.176 6.176 13.796 9.262 22.854 9.262 9.061 0 16.678-3.086 22.854-9.262 6.178-6.173 9.266-13.994 9.266-23.255s-3.088-17.084-9.266-23.257c-6.176-6.174-13.793-9.262-22.854-9.262z" fill="#4F5F3B"/>
</svg>
